<svg xmlns="http://www.w3.org/2000/svg" xmlns:xlink="http://www.w3.org/1999/xlink" viewBox="0 0 1024 1024">
  <defs>
    <style>
      .cls-1 {
        clip-path: url(#clip-icon);
      }

      .cls-2 {
        fill: #ee7203;
      }

      .cls-2, .cls-3 {
        fill-rule: evenodd;
      }

      .cls-3 {
        fill: #fff;
      }
    </style>
    <clipPath id="clip-icon">
      <rect width="1024" height="1024"/>
    </clipPath>
  </defs>
  <g id="icon" class="cls-1">
    <g id="Group_3" data-name="Group 3" transform="translate(-0.1 2.6)">
      <path id="Path_12" data-name="Path 12" class="cls-2" d="M283.026.4C127.1.4.1,125.788.1,280.111v456.54c0,154.323,127,281.319,282.926,281.319H742.781c154.323,0,281.319-127,281.319-281.319V.4Z" transform="translate(0 0)"/>
      <g id="Group_2" data-name="Group 2" transform="translate(190.962 199.734)">
        <path id="Path_13" data-name="Path 13" class="cls-3" d="M537.217,581.928c-61.086,0-106.1-35.366-128.6-70.732-4.823-9.645-6.43-20.9,3.215-28.936,8.038-6.43,20.9-4.823,27.328,4.823,20.9,27.328,54.656,54.656,98.06,53.049,67.517,0,93.237-48.226,93.237-91.629,0-78.769-94.845-78.769-94.845-78.769-80.377-4.823-128.6-48.226-128.6-114.135,0-54.656,41.8-114.135,127-114.135,36.973,0,72.339,14.468,93.237,35.366,8.038,8.038,8.038,20.9,0,27.328-8.038,8.038-19.29,8.038-32.151-1.608-16.075-12.86-35.366-22.506-61.086-22.506-69.124,1.608-86.807,51.441-85.2,75.554,0,69.124,85.2,73.947,85.2,73.947,73.947,4.823,139.856,35.366,139.856,118.958,0,75.554-49.834,131.818-136.641,133.425ZM325.022,532.094a62.282,62.282,0,0,1-38.581,8.038c-67.516,0-93.237-48.226-93.237-91.629V183.259h128.6c11.253,0,19.29-8.038,19.29-19.29s-8.038-19.29-19.29-19.29H193.2V11.253c0-1.608-1.608-3.215-1.608-4.823H149.8V451.717h0c0,73.947,51.441,128.6,136.64,130.21,20.9,0,38.581-4.823,54.656-11.253,9.645-4.823,14.468-16.075,11.253-25.721-4.823-11.253-16.075-16.075-27.328-12.86ZM58.171,28.936A28.815,28.815,0,0,0,29.236,0C13.16,1.608.3,12.86.3,28.936a28.936,28.936,0,0,0,57.871,0ZM30.843,141.463c-19.29,0-20.9,11.253-20.9,16.075V575.5H50.134V157.538c0-3.215-1.608-16.075-19.29-16.075Z" transform="translate(-0.3)"/>
      </g>
    </g>
  </g>
</svg>
